<svg width="275" height="392" viewBox="0 0 275 392" fill="none" xmlns="http://www.w3.org/2000/svg">
<path d="M13.8697 216.12C14.2577 216.145 14.64 216.166 15.0279 216.166C22.6884 216.166 29.1906 210.251 29.7935 202.468L34.0022 148.082L62.4493 127.544V206.435C62.4493 210.401 63.52 214.103 65.2335 217.374L33.3004 349.923C31.0011 359.504 36.872 369.123 46.4152 371.43C47.8282 371.767 49.2299 371.918 50.6144 371.918C58.6457 371.918 65.9238 366.442 67.8922 358.288L98.321 231.967L132.899 248.487L129.999 295.377C129.391 305.19 136.836 313.66 146.646 314.262C147.028 314.287 147.399 314.299 147.77 314.299C157.09 314.299 164.92 307.025 165.51 297.581L169.169 238.685C169.608 231.434 165.626 224.625 159.061 221.504L109.895 198.023V145.874L127.091 166.436C129.535 169.36 133.01 171.227 136.777 171.656L189.063 177.596C189.63 177.653 190.185 177.69 190.754 177.69C198.188 177.69 204.603 172.092 205.461 164.517C206.387 156.367 200.527 149.011 192.397 148.084L146.007 142.823L108.208 97.6314C107.084 94.7603 105.422 92.1674 103.338 89.9631C101.356 82.2835 94.4565 76.5871 86.1761 76.5871C80.0105 76.5871 74.5903 79.721 71.3991 84.482L11.1026 128.02C7.57097 130.577 5.32875 134.568 4.99974 138.912L0.25095 200.157C-0.397563 208.349 5.71101 215.495 13.8697 216.12Z" fill="#6B9080"/>
<path d="M101.642 73.7446C121.97 73.7446 138.449 57.2363 138.449 36.8723C138.449 16.5083 121.97 0 101.642 0C81.3135 0 64.8342 16.5083 64.8342 36.8723C64.8342 57.2363 81.3135 73.7446 101.642 73.7446Z" fill="#6B9080"/>
<path d="M275 200.553L231.329 214.209L241.382 224.278L193.637 262.642C192.236 263.768 191.425 265.471 191.425 267.272V320.728H101.642C98.3705 320.728 95.7118 323.386 95.7118 326.667V380.125H5.9298C2.65871 380.125 0 382.781 0 386.064C0 389.346 2.65681 392.004 5.9298 392.004H101.642C104.913 392.004 107.571 389.346 107.571 386.064V332.607H197.353C200.619 332.607 203.283 329.949 203.283 326.667V270.126L249.824 232.724L261.37 244.29L275 200.553Z" fill="#6B9080"/>
</svg>
