<svg width="360" height="640" viewBox="0 0 360 640" fill="none" xmlns="http://www.w3.org/2000/svg">
<rect width="360" height="640" fill="#B9534D"/>
<path d="M253.089 290.698C252.315 286.408 251.19 282.103 250.294 278.987C254.099 262.78 250.227 233.967 242.108 218.867C239.83 214.631 235.503 212 230.816 212C227.9 212 225.018 213.032 222.698 214.911C214.207 221.784 203.607 230.92 197.333 238.381C193.467 238.06 187.771 237.793 179.429 237.766L161.022 237.698C154.694 230.387 144.535 221.641 136.301 214.979C133.982 213.1 131.1 212.061 128.183 212.061C123.497 212.061 119.177 214.699 116.891 218.935C108.773 234.028 104.901 262.849 108.705 279.056C107.81 282.171 106.691 286.476 105.911 290.767C104.412 299.089 104.745 304.364 107.044 308.416C109.255 312.331 116.973 321.029 129.153 328.948C139.713 335.814 156.776 344 178.093 344C178.56 344 179.028 343.993 179.503 343.986C179.971 343.993 180.439 344 180.907 344C202.23 344 219.294 335.794 229.853 328.907C242.027 320.974 249.745 312.269 251.963 308.347C254.255 304.302 254.587 299.021 253.089 290.698ZM243.126 303.271C243.085 303.346 243.038 303.428 242.983 303.51C242.882 303.681 242.753 303.872 242.603 304.077C242.386 304.384 242.122 304.74 241.81 305.129C241.607 305.389 241.383 305.662 241.132 305.956C240.643 306.537 240.074 307.172 239.423 307.862C239.104 308.204 238.758 308.559 238.399 308.921C234.974 312.399 229.86 316.82 223.309 320.96C222.617 321.398 221.911 321.828 221.192 322.258C219.388 323.331 217.489 324.377 215.496 325.367C214.702 325.77 213.888 326.16 213.068 326.536C210.999 327.485 208.842 328.374 206.598 329.187C205.702 329.508 204.793 329.822 203.871 330.116C197.889 332.029 191.351 333.348 184.325 333.669C183.199 333.724 182.06 333.751 180.907 333.751C180.439 333.751 179.971 333.744 179.503 333.737C179.028 333.744 178.56 333.751 178.093 333.751C167.54 333.751 158.011 331.489 149.75 328.189C148.882 327.841 148.034 327.485 147.193 327.117C144.664 326.01 142.27 324.807 140.011 323.557C139.265 323.14 138.533 322.716 137.814 322.286C137.448 322.074 137.088 321.855 136.735 321.644C136.03 321.213 135.345 320.776 134.674 320.339H134.667C133.996 319.901 133.344 319.464 132.7 319.02C128.855 316.376 125.593 313.69 122.988 311.285C122.554 310.882 122.14 310.486 121.74 310.103C121.34 309.721 120.96 309.345 120.601 308.983C120.242 308.614 119.902 308.258 119.577 307.917C119.414 307.746 119.258 307.575 119.109 307.411C118.804 307.083 118.519 306.762 118.254 306.461C117.054 305.095 116.254 304.008 115.874 303.339C113.663 299.431 117.257 286.045 118.729 281.044C119.075 279.855 119.095 278.605 118.783 277.409C118.763 277.32 118.736 277.224 118.716 277.136C118.451 276.097 118.234 274.977 118.051 273.781C115.955 259.89 119.211 236.14 125.837 223.82C126.033 223.452 126.284 223.144 126.569 222.912C126.752 222.755 126.956 222.625 127.173 222.529C127.492 222.386 127.837 222.31 128.183 222.31C128.773 222.31 129.384 222.522 129.933 222.966C135.996 227.879 151.771 241.011 156.465 248.486C156.743 248.937 157.224 249.211 157.74 249.211C157.828 249.211 157.909 249.204 157.99 249.19C160.079 248.828 165.885 248.131 179.605 248.076L179.395 248.015C182.928 248.029 185.933 248.083 188.489 248.165C195.394 248.384 198.988 248.801 200.684 249.067C200.792 249.088 200.901 249.094 201.009 249.094C201.287 249.094 201.558 249.04 201.809 248.924C201.938 248.869 202.06 248.807 202.169 248.726C202.176 248.726 202.176 248.719 202.176 248.719C202.243 248.671 202.311 248.616 202.366 248.562C202.494 248.452 202.603 248.322 202.691 248.179C207.567 240.663 223.064 227.756 229.066 222.898C229.616 222.461 230.226 222.249 230.816 222.249C231.745 222.249 232.634 222.775 233.163 223.752C239.796 236.092 243.058 259.911 240.935 273.801C240.752 274.997 240.528 276.124 240.264 277.156C240.25 277.224 240.23 277.286 240.216 277.347C239.904 278.536 239.925 279.794 240.277 280.976C241.742 285.977 245.337 299.362 243.126 303.271Z" fill="#343434"/>
<path d="M190.051 310.016C190.037 311.164 189.935 312.34 189.778 313.755C189.922 312.388 190.017 311.164 190.051 310.016Z" fill="white"/>
<path d="M227.986 282.68C227.986 292.366 219.283 300.248 208.589 300.248C197.895 300.248 189.615 292.749 189.212 283.384C186.191 282.769 183.128 282.454 180.066 282.427C180.155 282.707 180.243 282.974 180.332 283.247C180.516 283.794 180.707 284.32 180.898 284.847C183.756 292.407 188.032 297.807 189.192 303.071C189.867 305.368 190.099 307.364 190.058 309.613C190.058 309.742 190.051 309.879 190.051 310.016C190.017 311.164 189.922 312.388 189.778 313.755C189.696 314.493 189.608 315.266 189.512 316.093C189.867 316.107 190.222 316.093 190.576 316.045C193.148 315.717 195.446 313.748 196.571 310.911C197.131 309.51 198.72 308.82 200.118 309.38C201.516 309.941 202.198 311.533 201.639 312.935C199.784 317.617 195.808 320.885 191.272 321.473C190.338 321.596 189.403 321.596 188.489 321.486C187.657 324.781 186.32 328.821 184.213 333.948C183.081 334.003 181.935 334.03 180.775 334.03C180.305 334.03 179.834 334.023 179.364 334.016C178.886 334.023 178.416 334.03 177.945 334.03C167.332 334.03 157.75 331.767 149.443 328.466C148.57 328.117 147.71 327.755 146.871 327.392C144.327 326.285 141.92 325.082 139.648 323.831C138.898 323.407 138.162 322.983 137.439 322.559C137.07 322.348 136.709 322.129 136.354 321.917C135.645 321.479 134.956 321.049 134.281 320.611H134.274C133.599 320.167 132.944 319.729 132.296 319.292C128.429 316.647 125.148 313.96 122.529 311.554C122.093 311.151 121.677 310.754 121.274 310.371C120.872 309.989 120.49 309.613 120.129 309.25C119.767 308.881 119.426 308.526 119.099 308.184C118.935 308.013 118.778 307.842 118.628 307.678C118.321 307.35 118.035 307.029 117.769 306.728C116.561 305.361 115.757 304.274 115.375 303.604C113.151 299.694 116.766 286.303 118.246 281.299C118.594 280.109 118.614 278.859 118.301 277.662C118.28 277.573 118.253 277.478 118.232 277.389C117.966 276.35 117.748 275.229 117.564 274.033C115.457 260.135 118.73 236.374 125.394 224.05C125.592 223.68 125.844 223.373 126.13 223.14C126.315 222.983 126.519 222.853 126.737 222.758C127.058 222.614 127.406 222.539 127.754 222.539C128.347 222.539 128.961 222.751 129.513 223.195C135.611 228.11 151.475 241.248 156.195 248.727C156.474 249.178 156.959 249.451 157.477 249.451C157.566 249.451 157.647 249.444 157.729 249.431C159.83 249.068 165.668 248.371 179.466 248.316L179.254 248.255C182.808 248.269 185.829 248.323 188.401 248.405C188.401 248.405 178.818 260.751 178.818 274.422C178.818 276.035 178.968 277.567 179.227 279.016C182.644 278.982 186.061 279.289 189.43 279.932C190.89 271.551 198.924 265.119 208.589 265.119C216.821 265.119 223.873 269.788 226.677 276.357C227.161 277.471 227.522 278.647 227.734 279.863C227.904 280.779 227.986 281.723 227.986 282.68Z" fill="#EFCBA9"/>
<path d="M243.346 303.536C243.305 303.611 243.257 303.693 243.202 303.775C243.093 303.946 242.97 304.137 242.82 304.342C242.602 304.65 242.336 305.005 242.022 305.395C241.818 305.655 241.586 305.928 241.34 306.222C240.843 306.803 240.27 307.439 239.622 308.129C239.294 308.471 238.953 308.826 238.592 309.189C235.148 312.668 230.005 317.091 223.416 321.233C222.721 321.671 222.011 322.101 221.288 322.532C219.474 323.605 217.565 324.651 215.559 325.642C214.761 326.039 213.95 326.429 213.118 326.811C211.037 327.761 208.869 328.65 206.611 329.464C205.711 329.785 204.797 330.092 203.869 330.393C197.854 332.307 191.279 333.627 184.213 333.948C186.32 328.821 187.657 324.781 188.489 321.486C189.403 321.596 190.338 321.596 191.272 321.473C195.808 320.885 199.784 317.617 201.639 312.935C202.198 311.533 201.516 309.941 200.118 309.38C198.72 308.82 197.131 309.51 196.571 310.911C195.446 313.748 193.148 315.717 190.576 316.045C190.222 316.093 189.867 316.107 189.512 316.093C189.608 315.266 189.696 314.493 189.778 313.755C189.922 312.388 190.017 311.164 190.051 310.016C190.051 309.879 190.058 309.742 190.058 309.613C190.099 307.364 189.867 305.368 189.192 303.071C188.032 297.807 183.756 292.407 180.898 284.847C180.707 284.32 180.516 283.794 180.332 283.247C180.243 282.974 180.155 282.707 180.066 282.427C183.128 282.454 186.191 282.769 189.212 283.384C189.615 292.749 198.154 300.248 208.589 300.248C219.024 300.248 227.986 292.366 227.986 282.68C227.986 281.723 227.904 280.779 227.734 279.863C227.522 278.647 227.161 277.471 226.677 276.357C223.873 269.788 216.821 265.119 208.589 265.119C198.924 265.119 190.89 271.551 189.43 279.932C186.061 279.289 182.644 278.982 179.227 279.016C178.968 277.567 178.818 276.035 178.818 274.422C178.818 260.751 188.401 248.405 188.401 248.405C195.344 248.624 198.959 249.041 200.664 249.308C200.773 249.328 200.882 249.335 200.991 249.335C201.271 249.335 201.543 249.28 201.796 249.164C201.925 249.109 202.048 249.048 202.157 248.966C202.164 248.966 202.164 248.959 202.164 248.959C202.232 248.911 202.301 248.856 202.355 248.802C202.485 248.692 202.594 248.563 202.682 248.419C207.586 240.9 223.171 227.987 229.207 223.127C229.759 222.689 230.373 222.477 230.967 222.477C231.901 222.477 232.794 223.004 233.326 223.981C239.997 236.327 243.277 260.156 241.143 274.053C240.958 275.249 240.733 276.377 240.467 277.409C240.454 277.478 240.433 277.539 240.42 277.601C240.106 278.79 240.126 280.048 240.481 281.231C241.954 286.234 245.569 299.626 243.346 303.536Z" fill="#E1BC9A"/>
<mask id="mask0_1099_9544" style="mask-type:luminance" maskUnits="userSpaceOnUse" x="88" y="294" width="50" height="35">
<path d="M137.896 294.93H88.1068V328.425H137.896V294.93Z" fill="white"/>
</mask>
<g mask="url(#mask0_1099_9544)">
<path d="M89.9415 319.47C89.7505 319.47 89.5595 319.436 89.3754 319.374C88.4887 319.06 88.0249 318.082 88.3387 317.193C91.8512 307.234 97.594 300.569 105.41 297.377C119.303 291.703 134.574 299.099 135.222 299.414C136.068 299.831 136.416 300.856 136 301.704C135.584 302.551 134.56 302.9 133.715 302.483C133.571 302.415 119.146 295.449 106.679 300.548C99.8106 303.358 94.7226 309.339 91.5579 318.328C91.3124 319.032 90.6508 319.47 89.9483 319.47H89.9415Z" fill="#A08473"/>
<path d="M102.692 327.969C102.486 328.024 102.264 328.042 102.037 328.018C101.097 327.902 100.435 327.047 100.547 326.111C101.402 319.37 104.249 314.211 109.024 310.763C118.616 303.835 132.439 306.414 133.023 306.526C133.953 306.708 134.554 307.601 134.375 308.527C134.19 309.454 133.292 310.056 132.365 309.881C132.238 309.858 119.392 307.483 111.023 313.538C107.06 316.407 104.683 320.775 103.956 326.533C103.869 327.243 103.35 327.8 102.694 327.976L102.692 327.969Z" fill="#A08473"/>
</g>
<mask id="mask1_1099_9544" style="mask-type:luminance" maskUnits="userSpaceOnUse" x="221" y="295" width="50" height="34">
<path d="M270.825 295.251H221.445V328.425H270.825V295.251Z" fill="white"/>
</mask>
<g mask="url(#mask1_1099_9544)">
<path d="M269.12 319.47C268.417 319.47 267.763 319.032 267.51 318.328C264.339 309.339 259.251 303.358 252.39 300.548C239.929 295.449 225.497 302.415 225.354 302.483C224.508 302.9 223.485 302.551 223.076 301.704C222.659 300.856 223.007 299.838 223.853 299.421C224.494 299.106 239.765 291.71 253.665 297.384C261.481 300.576 267.224 307.241 270.736 317.2C271.05 318.089 270.586 319.067 269.7 319.381C269.509 319.449 269.318 319.477 269.134 319.477L269.12 319.47Z" fill="#A08473"/>
<path d="M257.743 327.972C257.09 327.797 256.582 327.242 256.49 326.531C255.776 320.777 253.414 316.406 249.468 313.549C241.13 307.495 228.39 309.905 228.262 309.935C227.338 310.118 226.441 309.509 226.265 308.585C226.082 307.658 226.689 306.759 227.612 306.583C228.193 306.47 241.944 303.871 251.471 310.782C256.208 314.22 259.037 319.381 259.878 326.111C259.995 327.048 259.329 327.902 258.394 328.019C258.168 328.044 257.947 328.027 257.743 327.972Z" fill="#A08473"/>
</g>
<path d="M201.639 312.935C199.784 317.617 195.808 320.885 191.272 321.473C190.338 321.596 189.403 321.596 188.489 321.486C184.854 321.09 181.464 319.012 179.179 315.908C176.629 319.456 172.646 321.691 168.478 321.691C167.987 321.691 167.496 321.664 166.998 321.602C162.463 321.015 158.493 317.747 156.631 313.065C156.072 311.663 156.754 310.071 158.152 309.51C159.55 308.949 161.14 309.64 161.699 311.041C162.824 313.878 165.123 315.847 167.694 316.175C171.493 316.66 175.258 313.666 176.288 309.36C176.513 308.444 177.181 307.705 178.075 307.411L178.463 307.282C179.186 307.035 179.977 307.104 180.653 307.48C181.321 307.849 181.805 308.485 181.983 309.23C182.917 313.14 186.109 315.963 189.512 316.093C189.867 316.107 190.222 316.093 190.576 316.045C193.148 315.717 195.446 313.748 196.571 310.911C197.131 309.51 198.72 308.82 200.118 309.38C201.516 309.941 202.198 311.533 201.639 312.935Z" fill="#655247"/>
<path d="M150.452 276.692C146.878 276.692 143.973 279.604 143.973 283.186C143.973 286.768 146.878 289.68 150.452 289.68C154.026 289.68 156.931 286.761 156.931 283.186C156.931 279.611 154.026 276.692 150.452 276.692Z" fill="#597781"/>
<path d="M207.743 276.692C204.169 276.692 201.264 279.604 201.264 283.186C201.264 286.768 204.169 289.68 207.743 289.68C211.317 289.68 214.223 286.761 214.223 283.186C214.223 279.611 211.317 276.692 207.743 276.692Z" fill="#597781"/>
<path d="M168.956 280.144C167.476 271.79 159.462 265.385 149.831 265.385C141.729 265.385 134.772 269.917 131.894 276.329C131.389 277.43 131.014 278.578 130.775 279.775C130.564 280.807 130.455 281.866 130.455 282.946C130.455 292.633 139.144 300.514 149.831 300.514C160.519 300.514 168.819 292.981 169.188 283.589C169.201 283.377 169.208 283.165 169.208 282.946C169.208 281.996 169.126 281.06 168.956 280.144ZM149.831 295.729C141.763 295.729 135.229 290.008 135.229 282.946C135.229 275.885 141.763 270.17 149.831 270.17C157.9 270.17 164.434 275.892 164.434 282.946C164.434 290.001 157.893 295.729 149.831 295.729Z" fill="#B9544D"/>
<path d="M149.831 270.17C141.763 270.17 135.229 275.892 135.229 282.946C135.229 290.001 141.763 295.729 149.831 295.729C157.9 295.729 164.434 290.008 164.434 282.946C164.434 275.885 157.893 270.17 149.831 270.17ZM150.452 289.68C146.878 289.68 143.973 286.761 143.973 283.186C143.973 279.61 146.878 276.692 150.452 276.692C154.026 276.692 156.931 279.604 156.931 283.186C156.931 286.767 154.026 289.68 150.452 289.68Z" fill="#ECE5DE"/>
<path d="M227.734 279.863C227.522 278.647 227.161 277.471 226.677 276.357C223.873 269.787 216.821 265.119 208.589 265.119C198.924 265.119 190.89 271.551 189.43 279.932C189.274 280.827 189.192 281.743 189.192 282.68C189.192 282.919 189.192 283.151 189.212 283.384C189.615 292.749 198.154 300.248 208.589 300.248C219.024 300.248 227.986 292.366 227.986 282.68C227.986 281.723 227.904 280.779 227.734 279.863ZM208.589 295.463C200.514 295.463 193.966 289.741 193.966 282.68C193.966 275.618 200.514 269.904 208.589 269.904C216.664 269.904 223.212 275.625 223.212 282.68C223.212 289.734 216.664 295.463 208.589 295.463Z" fill="#B9544D"/>
<path d="M208.589 269.904C200.514 269.904 193.966 275.625 193.966 282.68C193.966 289.734 200.514 295.463 208.589 295.463C216.664 295.463 223.212 289.741 223.212 282.68C223.212 275.618 216.664 269.904 208.589 269.904ZM207.743 289.68C204.169 289.68 201.264 286.761 201.264 283.186C201.264 279.61 204.169 276.692 207.743 276.692C211.317 276.692 214.223 279.604 214.223 283.186C214.223 286.767 211.317 289.68 207.743 289.68Z" fill="#ECE5DE"/>
<path d="M189.192 282.68C189.192 282.919 189.192 283.151 189.212 283.384C186.191 282.769 183.128 282.454 180.066 282.427C176.417 282.406 172.768 282.789 169.188 283.589C169.201 283.377 169.208 283.165 169.208 282.946C169.208 281.996 169.126 281.06 168.956 280.144C172.345 279.426 175.79 279.043 179.227 279.016C182.644 278.982 186.061 279.289 189.43 279.932C189.274 280.827 189.192 281.743 189.192 282.68Z" fill="#B9544D"/>
<path d="M241.143 274.053C240.959 275.249 240.733 276.377 240.467 277.409C238.142 276.91 234.636 276.575 231.226 277.82C229.664 278.387 228.532 279.139 227.734 279.863C227.522 278.647 227.161 277.471 226.677 276.357C227.591 275.714 228.702 275.099 230.06 274.607C234.206 273.096 238.36 273.465 241.143 274.053Z" fill="#B9544D"/>
<path d="M131.894 276.329C131.389 277.43 131.014 278.578 130.775 279.775C129.991 279.084 128.886 278.366 127.379 277.819C124.016 276.589 120.558 276.903 118.232 277.389C117.966 276.35 117.748 275.229 117.564 274.032C120.34 273.458 124.446 273.11 128.545 274.607C129.882 275.092 130.987 275.694 131.894 276.329Z" fill="#B9544D"/>
<mask id="mask2_1099_9544" style="mask-type:luminance" maskUnits="userSpaceOnUse" x="124" y="232" width="23" height="32">
<path d="M124.466 232.054H146.414V263.307H124.466V232.054Z" fill="white"/>
</mask>
<g mask="url(#mask2_1099_9544)">
<path d="M144.505 252.288C138.469 253.723 133.005 256.936 128.818 261.523L127.747 262.699C125.019 266.117 124.466 254.086 124.466 254.086C124.61 245.391 125.899 238.794 127.747 233.305C127.938 232.738 128.429 231.254 130.475 232.621C130.475 232.621 152.982 251.762 144.505 252.295V252.288Z" fill="#DC9C7A"/>
</g>
<mask id="mask3_1099_9544" style="mask-type:luminance" maskUnits="userSpaceOnUse" x="211" y="232" width="23" height="32">
<path d="M233.92 232.054H211.972V263.307H233.92V232.054Z" fill="white"/>
</mask>
<g mask="url(#mask3_1099_9544)">
<path d="M213.874 252.288C219.91 253.724 225.373 256.937 229.561 261.523L230.632 262.699C233.36 266.117 233.913 254.086 233.913 254.086C233.769 245.391 232.48 238.795 230.632 233.306C230.441 232.738 229.95 231.255 227.904 232.622C227.904 232.622 205.397 251.762 213.874 252.295V252.288Z" fill="#DC9C7A"/>
</g>
<path d="M109.161 387.987C108.513 387.844 108.015 387.502 107.654 386.962C107.293 386.415 107.183 385.834 107.32 385.212C107.381 384.925 107.518 384.576 107.715 384.18C107.77 384.05 107.818 383.927 107.865 383.811C107.913 383.695 107.975 383.585 108.043 383.483L116.418 367.152C116.902 366.188 117.462 365.518 118.089 365.156C118.717 364.794 119.446 364.698 120.292 364.883C121.158 365.074 121.799 365.464 122.222 366.052C122.638 366.646 122.87 367.48 122.918 368.56L123.805 386.901C123.818 387.044 123.832 387.201 123.846 387.365C123.859 387.529 123.852 387.707 123.839 387.885C123.825 388.07 123.812 388.234 123.798 388.384C123.791 388.534 123.771 388.664 123.75 388.774C123.614 389.396 123.28 389.881 122.734 390.23C122.195 390.578 121.588 390.681 120.92 390.537C120.231 390.387 119.706 390.066 119.351 389.567C118.989 389.068 118.812 388.439 118.819 387.666L118.758 382.615L118.901 380.653L118.867 372.252L118.533 372.176L115.102 379.826L114.42 381.705L112.258 386.238C111.944 386.942 111.514 387.441 110.976 387.741C110.437 388.042 109.83 388.124 109.161 387.981V387.987ZM111.426 382.355L113.144 378.11L121.274 379.873L121.056 384.44L111.426 382.348V382.355Z" fill="#ECE5DE"/>
<path d="M127.999 391.611C127.576 391.535 127.208 391.378 126.908 391.125C126.601 390.879 126.383 390.571 126.233 390.209C126.09 389.847 126.049 389.464 126.117 389.061L130.189 368.601C130.291 367.993 130.598 367.515 131.109 367.166C131.621 366.817 132.187 366.694 132.814 366.804C133.217 366.872 133.572 367.036 133.872 367.296C134.172 367.556 134.397 367.863 134.54 368.225C134.683 368.588 134.724 368.971 134.656 369.374L130.591 389.833C130.489 390.421 130.189 390.886 129.691 391.241C129.193 391.597 128.627 391.72 127.999 391.611Z" fill="#ECE5DE"/>
<path d="M135.959 392.868C135.529 392.807 135.161 392.656 134.854 392.417C134.547 392.178 134.308 391.877 134.158 391.522C134.008 391.166 133.953 390.783 134.015 390.38L137.561 369.839C137.65 369.23 137.943 368.745 138.441 368.376C138.939 368.013 139.505 367.877 140.14 367.966C140.542 368.027 140.903 368.178 141.21 368.43C141.517 368.683 141.749 368.984 141.906 369.34C142.063 369.695 142.111 370.078 142.049 370.481L138.503 391.023C138.421 391.61 138.128 392.082 137.643 392.451C137.152 392.82 136.593 392.957 135.965 392.861L135.959 392.868Z" fill="#ECE5DE"/>
<path d="M147.71 394.68C146.51 394.55 145.473 394.187 144.6 393.579C143.727 392.971 143.079 392.205 142.649 391.275C142.22 390.346 142.063 389.341 142.179 388.254L143.557 376.872C143.672 375.786 144.034 374.829 144.648 373.995C145.262 373.161 146.039 372.552 146.987 372.142C147.935 371.739 148.979 371.595 150.138 371.718C151.27 371.841 152.266 372.197 153.126 372.792C153.985 373.386 154.619 374.152 155.028 375.088C155.431 376.025 155.574 377.037 155.465 378.123C155.417 378.602 155.363 379.067 155.315 379.532C155.267 379.996 155.213 380.475 155.165 380.974C155.09 381.651 154.81 382.15 154.319 382.464C153.828 382.779 153.207 382.895 152.464 382.82L146.155 382.15L147.69 380.906L146.687 388.712C146.646 389.095 146.68 389.437 146.783 389.737C146.885 390.038 147.049 390.271 147.274 390.441C147.499 390.612 147.778 390.715 148.113 390.756C148.447 390.797 148.747 390.756 148.999 390.66C149.252 390.564 149.552 390.339 149.913 389.983C150.193 389.737 150.479 389.56 150.779 389.437C151.079 389.32 151.407 389.279 151.768 389.32C152.355 389.382 152.798 389.614 153.098 390.011C153.398 390.407 153.521 390.872 153.467 391.392C153.426 391.802 153.276 392.198 153.016 392.581C152.757 392.964 152.416 393.319 151.993 393.641C151.427 394.037 150.772 394.331 150.029 394.516C149.292 394.7 148.515 394.748 147.696 394.666L147.71 394.68ZM147.71 380.065L146.455 378.663L152.287 379.279L150.766 380.386L151.052 377.665C151.093 377.303 151.052 376.982 150.95 376.708C150.841 376.435 150.677 376.209 150.452 376.039C150.227 375.868 149.981 375.765 149.715 375.738C149.443 375.71 149.177 375.758 148.911 375.874C148.645 375.991 148.44 376.182 148.283 376.428C148.133 376.674 148.038 376.982 147.997 377.344L147.71 380.065Z" fill="#ECE5DE"/>
<path d="M159.203 395.336C158.773 395.309 158.391 395.192 158.064 394.974C157.736 394.762 157.477 394.481 157.293 394.14C157.109 393.798 157.027 393.422 157.054 393.012L157.852 375.745C157.886 375.129 158.139 374.624 158.609 374.234C159.08 373.844 159.632 373.66 160.266 373.701C160.833 373.735 161.303 373.926 161.685 374.268C162.06 374.61 162.238 375 162.21 375.43L162.163 376.216L160.662 375.027L162.538 375.143C162.763 374.767 163.111 374.446 163.568 374.179C164.025 373.913 164.516 373.79 165.041 373.824L165.893 373.879C166.507 373.913 166.998 374.131 167.373 374.514C167.748 374.904 167.919 375.403 167.878 376.018C167.844 376.613 167.619 377.084 167.21 377.433C166.8 377.782 166.275 377.939 165.641 377.905L163.67 377.782C163.397 377.768 163.152 377.816 162.926 377.939C162.701 378.062 162.524 378.24 162.401 378.472C162.272 378.705 162.203 378.978 162.183 379.299L161.583 393.292C161.549 393.887 161.296 394.386 160.846 394.789C160.389 395.192 159.844 395.377 159.209 395.343L159.203 395.336Z" fill="#ECE5DE"/>
<path d="M177.092 396.512C175.571 396.498 174.221 396.156 173.041 395.486C171.868 394.816 170.954 393.873 170.306 392.649C169.658 391.426 169.338 390.018 169.351 388.425L169.433 378.773C169.447 377.201 169.781 375.799 170.443 374.583C171.104 373.359 172.018 372.429 173.198 371.78C174.371 371.131 175.715 370.816 177.215 370.83C178.218 370.837 179.173 371.035 180.093 371.411C181.014 371.787 181.798 372.293 182.453 372.922C182.972 373.366 183.374 373.851 183.654 374.371C183.933 374.897 184.07 375.43 184.063 375.991C184.063 376.688 183.81 377.269 183.333 377.741C182.849 378.212 182.255 378.445 181.553 378.438C181.144 378.438 180.789 378.329 180.482 378.117C180.175 377.905 179.821 377.542 179.418 377.03C179.036 376.497 178.682 376.121 178.354 375.909C178.027 375.697 177.638 375.587 177.181 375.587C176.656 375.587 176.199 375.697 175.797 375.936C175.394 376.175 175.08 376.538 174.848 377.023C174.617 377.508 174.501 378.11 174.494 378.828L174.412 388.48C174.412 389.197 174.514 389.806 174.739 390.305C174.964 390.804 175.292 391.173 175.721 391.405C176.151 391.645 176.629 391.761 177.154 391.768C177.836 391.768 178.436 391.658 178.948 391.419C179.459 391.18 179.889 390.831 180.237 390.373L179.534 392.588L179.602 384.918L181.191 386.429L179.179 386.408C178.497 386.408 177.931 386.169 177.481 385.718C177.031 385.26 176.806 384.72 176.813 384.098C176.813 383.476 177.065 382.929 177.543 382.471C178.027 382.013 178.62 381.787 179.323 381.794L182.119 381.822C182.596 381.822 183.019 381.938 183.394 382.163C183.77 382.389 184.063 382.676 184.274 383.038C184.486 383.401 184.588 383.797 184.588 384.242L184.527 391.672C184.527 392.342 184.199 393.073 183.572 393.853C182.937 394.632 182.051 395.281 180.912 395.787C179.773 396.3 178.504 396.546 177.12 396.532L177.092 396.512Z" fill="#ECE5DE"/>
<path d="M194.014 396.006C192.807 396.061 191.729 395.855 190.774 395.391C189.819 394.926 189.062 394.263 188.496 393.408C187.93 392.554 187.623 391.583 187.575 390.489L187.268 379.764C187.221 378.67 187.432 377.672 187.916 376.756C188.401 375.847 189.076 375.116 189.949 374.576C190.822 374.036 191.838 373.735 192.998 373.68C194.13 373.626 195.173 373.831 196.114 374.289C197.056 374.747 197.799 375.41 198.338 376.271C198.877 377.132 199.177 378.117 199.225 379.204C199.245 379.682 199.272 380.154 199.293 380.619C199.313 381.083 199.341 381.569 199.361 382.068C199.395 382.751 199.19 383.284 198.754 383.667C198.317 384.05 197.724 384.262 196.974 384.296L190.638 384.59L191.968 383.127L192.111 390.271C192.131 390.66 192.213 390.988 192.363 391.269C192.513 391.549 192.711 391.754 192.957 391.891C193.202 392.027 193.495 392.089 193.836 392.075C194.177 392.062 194.464 391.986 194.696 391.85C194.928 391.713 195.194 391.446 195.494 391.043C195.733 390.756 195.985 390.537 196.265 390.373C196.544 390.209 196.865 390.12 197.226 390.107C197.82 390.079 198.29 390.243 198.645 390.585C198.999 390.934 199.19 391.371 199.218 391.891C199.238 392.301 199.15 392.718 198.952 393.135C198.754 393.552 198.474 393.955 198.106 394.338C197.601 394.816 197.001 395.206 196.299 395.5C195.596 395.794 194.832 395.965 194.021 395.999L194.014 396.006ZM191.859 382.286L190.406 381.09L196.265 380.817L194.928 382.143L194.798 379.409C194.784 379.046 194.696 378.732 194.553 378.479C194.403 378.226 194.205 378.028 193.959 377.891C193.714 377.754 193.455 377.693 193.182 377.707C192.909 377.72 192.65 377.809 192.411 377.966C192.165 378.124 191.988 378.342 191.879 378.609C191.763 378.875 191.715 379.19 191.736 379.559L191.865 382.293L191.859 382.286Z" fill="#ECE5DE"/>
<path d="M205.561 394.912C205.131 394.953 204.735 394.892 204.381 394.734C204.026 394.577 203.726 394.338 203.487 394.03C203.249 393.723 203.112 393.36 203.071 392.957L201.114 375.724C201.052 375.109 201.223 374.576 201.625 374.111C202.028 373.646 202.546 373.386 203.174 373.325C203.651 373.277 204.047 373.325 204.367 373.468C204.688 373.612 204.926 373.79 205.07 374.015C205.22 374.241 205.302 374.466 205.322 374.692L205.37 375.17L203.897 374.487L205.629 374.316C205.82 373.933 206.168 373.55 206.666 373.181C207.163 372.812 207.771 372.593 208.466 372.525C209.237 372.45 209.953 372.587 210.628 372.928C211.303 373.277 211.856 373.844 212.286 374.637C212.715 375.43 212.988 376.428 213.111 377.631L214.775 391.802C214.83 392.39 214.666 392.923 214.277 393.395C213.888 393.866 213.377 394.133 212.743 394.194C212.313 394.235 211.917 394.174 211.563 394.017C211.208 393.859 210.915 393.62 210.69 393.313C210.465 393.005 210.335 392.643 210.294 392.233L208.63 378.062C208.603 377.748 208.514 377.481 208.384 377.276C208.248 377.071 208.077 376.92 207.859 376.811C207.641 376.702 207.402 376.668 207.129 376.695C206.836 376.722 206.591 376.811 206.4 376.955C206.209 377.098 206.072 377.283 205.99 377.508C205.909 377.734 205.881 378.007 205.915 378.322L207.58 392.492C207.634 393.08 207.47 393.613 207.082 394.085C206.693 394.557 206.181 394.823 205.547 394.885L205.561 394.912Z" fill="#ECE5DE"/>
<path d="M217.387 370.31C216.732 370.399 216.153 370.242 215.634 369.845C215.123 369.442 214.816 368.902 214.727 368.225C214.632 367.528 214.775 366.913 215.164 366.387C215.553 365.86 216.071 365.553 216.726 365.464C217.401 365.368 217.994 365.525 218.513 365.929C219.024 366.332 219.331 366.879 219.427 367.583C219.515 368.26 219.372 368.861 218.983 369.387C218.594 369.914 218.062 370.221 217.387 370.31ZM220.852 393.19C220.422 393.251 220.027 393.203 219.665 393.06C219.304 392.916 218.997 392.691 218.751 392.39C218.506 392.089 218.356 391.734 218.294 391.33L215.825 374.842C215.744 374.234 215.894 373.687 216.276 373.209C216.657 372.73 217.162 372.45 217.796 372.361C218.199 372.306 218.588 372.354 218.949 372.498C219.311 372.641 219.617 372.867 219.863 373.168C220.109 373.468 220.259 373.817 220.32 374.227L222.789 390.715C222.871 391.303 222.721 391.843 222.352 392.328C221.984 392.814 221.479 393.101 220.852 393.19Z" fill="#ECE5DE"/>
<path d="M230.803 391.939C230.039 392.075 229.323 391.993 228.648 391.692C227.972 391.399 227.379 390.872 226.861 390.113C226.349 389.361 225.988 388.391 225.776 387.201L223.341 373.14C223.232 372.532 223.362 371.985 223.723 371.493C224.085 371.001 224.583 370.7 225.21 370.591C225.613 370.522 226.001 370.549 226.37 370.679C226.738 370.809 227.052 371.021 227.311 371.308C227.57 371.595 227.734 371.944 227.809 372.347L230.244 386.408C230.298 386.723 230.394 386.976 230.537 387.174C230.673 387.372 230.858 387.502 231.076 387.584C231.301 387.659 231.553 387.673 231.846 387.618C232.112 387.571 232.338 387.475 232.522 387.324C232.706 387.174 232.829 386.989 232.904 386.75C232.979 386.518 232.985 386.244 232.931 385.93L230.496 371.869C230.387 371.26 230.51 370.714 230.864 370.221C231.219 369.729 231.703 369.428 232.331 369.319C232.754 369.244 233.156 369.271 233.524 369.401C233.893 369.531 234.2 369.743 234.452 370.037C234.697 370.331 234.861 370.679 234.929 371.083L237.903 388.179C238.005 388.76 237.883 389.307 237.535 389.806C237.187 390.305 236.696 390.612 236.068 390.722C235.598 390.804 235.202 390.79 234.882 390.674C234.561 390.558 234.309 390.387 234.118 390.168C233.927 389.949 233.818 389.737 233.783 389.532L233.695 389.027L235.25 389.587L233.504 389.895C233.347 390.318 233.033 390.729 232.563 391.139C232.092 391.549 231.512 391.809 230.817 391.932L230.803 391.939Z" fill="#ECE5DE"/>
<path d="M246.875 388.643C245.996 388.978 245.143 389.101 244.318 389.032C243.492 388.957 242.749 388.752 242.087 388.403C241.59 388.116 241.173 387.775 240.846 387.378C240.519 386.982 240.287 386.571 240.164 386.141C239.98 385.498 240.007 384.904 240.239 384.357C240.471 383.81 240.867 383.434 241.412 383.222C241.787 383.078 242.162 383.044 242.531 383.113C242.906 383.181 243.322 383.379 243.779 383.707C244.127 383.994 244.44 384.158 244.706 384.199C244.979 384.247 245.245 384.22 245.504 384.117C245.743 384.029 245.941 383.878 246.091 383.673C246.241 383.468 246.343 383.229 246.398 382.955C246.452 382.682 246.446 382.422 246.377 382.183C246.262 381.78 246.064 381.458 245.791 381.226C245.518 380.987 245.184 380.795 244.802 380.645C244.42 380.494 243.908 380.344 243.281 380.194C242.319 379.907 241.501 379.613 240.819 379.319C240.137 379.025 239.489 378.519 238.868 377.808C238.248 377.09 237.763 376.12 237.409 374.889C237.109 373.843 237.061 372.791 237.265 371.717C237.47 370.644 237.9 369.701 238.554 368.874C239.209 368.047 240.021 367.452 240.989 367.09C241.781 366.789 242.551 366.659 243.288 366.693C244.031 366.727 244.7 366.898 245.3 367.206C245.764 367.472 246.166 367.794 246.487 368.163C246.814 368.532 246.998 368.716 247.128 369.168C247.305 369.783 247.319 370.589 247.1 371.136C246.875 371.683 246.514 372.045 246.009 372.237C245.654 372.367 245.341 372.408 245.054 372.353C244.768 372.298 244.447 372.148 244.079 371.895C243.745 371.663 243.458 371.526 243.226 371.478C242.995 371.43 242.742 371.458 242.483 371.56C242.285 371.635 242.122 371.765 241.992 371.943C241.862 372.121 241.774 372.339 241.733 372.572C241.692 372.811 241.699 373.037 241.76 373.249C241.883 373.679 242.081 374.014 242.36 374.247C242.633 374.486 242.974 374.677 243.37 374.828C243.765 374.978 244.263 375.128 244.87 375.286C245.825 375.552 246.643 375.832 247.325 376.14C248.008 376.448 248.662 376.954 249.283 377.671C249.904 378.389 250.388 379.346 250.729 380.549C251.043 381.65 251.104 382.743 250.906 383.844C250.708 384.945 250.258 385.915 249.549 386.763C248.84 387.61 247.946 388.233 246.869 388.643H246.875Z" fill="#ECE5DE"/>
<path d="M159.361 559.242C133.166 559.242 105.853 540.045 97.809 526.28L97.4951 525.736L97.2767 525.141C95.066 519.041 96.1919 512.831 97.188 507.355C97.2836 506.833 97.4951 505.628 97.4951 505.628L97.5292 505.466C98.4913 501.167 98.7847 497.595 98.4572 494.207L98.4435 494.075C98.4094 493.649 95.6528 451.007 108.651 438.367L109.163 437.867L109.763 437.499C111.346 436.544 113.031 436.059 114.771 436.059C118.804 436.059 121.758 438.653 123.914 440.549L123.989 440.615C128.343 444.555 136.407 452.117 141.634 458.577C142.255 459.312 143.162 460.385 143.783 460.929L143.838 460.981C143.879 460.981 143.933 460.981 143.995 460.981C144.404 460.981 144.971 460.929 145.564 460.878C146.083 460.834 146.608 460.782 147.154 460.753C151.364 460.459 156.481 460.275 161.523 460.238C161.926 460.238 162.363 460.238 162.806 460.238C166.743 460.238 171.547 460.4 175.374 460.657C176.139 460.687 176.814 460.753 177.408 460.804C177.96 460.856 178.438 460.9 178.786 460.9C178.936 460.9 179.025 460.892 179.073 460.885C179.632 460.532 180.751 459.231 181.433 458.438L181.706 458.114C186.831 451.867 194.643 444.533 198.846 440.711L199.16 440.432C201.145 438.668 204.148 436 208.289 436C209.517 436 210.725 436.25 211.878 436.735C216.266 438.536 218.524 443.724 219.302 445.929C225.948 464.229 225.129 486.814 224.467 495.677C224.208 499.058 224.924 502.813 225.613 506.076L225.641 506.209L225.873 507.554C226.821 512.933 227.892 519.033 225.77 524.986L225.559 525.589L225.245 526.133C217.255 539.965 189.956 559.249 163.639 559.249C162.929 559.249 162.213 559.235 161.51 559.205C160.8 559.235 160.077 559.249 159.361 559.249V559.242Z" fill="#BA554E"/>
</svg>
