<svg width="12" height="13" viewBox="0 0 12 13" fill="none" xmlns="http://www.w3.org/2000/svg">
<rect y="1" width="12" height="12" rx="6" fill="black"/>
<path d="M3.804 11.048C3.564 11.048 3.36 11.032 3.192 11V9.8C3.32 9.832 3.464 9.848 3.624 9.848C3.888 9.848 4.084 9.784 4.212 9.656C4.34 9.52 4.404 9.316 4.404 9.044V2.6H5.724V9.008C5.724 9.696 5.564 10.208 5.244 10.544C4.932 10.88 4.452 11.048 3.804 11.048Z" fill="white"/>
<path d="M5.492 2.6H7.436C8.092 2.6 8.584 2.776 8.912 3.128C9.24 3.48 9.404 3.996 9.404 4.676V5.504C9.404 6.184 9.24 6.7 8.912 7.052C8.584 7.404 8.092 7.58 7.436 7.58H6.812V11H5.492V2.6ZM7.436 6.38C7.652 6.38 7.812 6.32 7.916 6.2C8.028 6.08 8.084 5.876 8.084 5.588V4.592C8.084 4.304 8.028 4.1 7.916 3.98C7.812 3.86 7.652 3.8 7.436 3.8H6.812V6.38H7.436Z" fill="white"/>
</svg>
